<?xml version="1.0" standalone="no"?><!DOCTYPE svg PUBLIC "-//W3C//DTD SVG 1.1//EN" "http://www.w3.org/Graphics/SVG/1.1/DTD/svg11.dtd"><svg t="1521796839252" class="icon" style="" viewBox="0 0 1024 1024" version="1.1" xmlns="http://www.w3.org/2000/svg" p-id="6044" xmlns:xlink="http://www.w3.org/1999/xlink" width="200" height="200"><defs><style type="text/css"></style></defs><path d="M742.4 288c-6.4-6.4-12.8-6.4-19.2 0L518.4 492.8 313.6 288c-6.4-6.4-12.8-6.4-19.2 0-6.4 6.4-6.4 12.8 0 19.2L499.2 512l-204.8 204.8c-6.4 6.4-6.4 12.8 0 19.2 0 0 6.4 6.4 12.8 6.4 6.4 0 6.4 0 12.8-6.4l204.8-204.8 204.8 204.8c0 0 6.4 6.4 12.8 6.4 6.4 0 6.4 0 12.8-6.4 6.4-6.4 6.4-12.8 0-19.2L537.6 512l204.8-204.8C748.8 300.8 748.8 294.4 742.4 288zM512 0C230.4 0 0 230.4 0 512c0 281.6 230.4 512 512 512 281.6 0 512-230.4 512-512C1024 230.4 793.6 0 512 0zM512 992c-262.4 0-480-217.6-480-480 0-262.4 217.6-480 480-480 262.4 0 480 217.6 480 480C992 774.4 774.4 992 512 992z" p-id="6045" fill="#000000"></path></svg>