<?xml version="1.0" standalone="no"?><!DOCTYPE svg PUBLIC "-//W3C//DTD SVG 1.1//EN" "http://www.w3.org/Graphics/SVG/1.1/DTD/svg11.dtd"><svg t="1521698395765" class="icon" style="" viewBox="0 0 1024 1024" version="1.1" xmlns="http://www.w3.org/2000/svg" p-id="4808" xmlns:xlink="http://www.w3.org/1999/xlink" width="200" height="200"><defs><style type="text/css"></style></defs><path d="M599.332 865.516h-35.15c6.236-6.458 13.141-14.143 20.816-23.294 28.053-33.447 58.99-77.915 87.112-125.212 32.315-54.348 59.58-110.178 78.848-161.452 23.211-61.771 34.979-116.72 34.979-163.319 0-73.123-28.476-141.868-80.181-193.574-51.705-51.705-120.451-80.181-193.574-80.181-73.123 0-141.868 28.476-193.573 80.181-51.706 51.706-80.181 120.451-80.181 193.574 0 98.46 53.087 214.03 89.137 281.146-11.915 16.432-18.952 36.62-18.952 58.424 0 39.74 23.621 85.399 37.701 109.079 5.134 8.634 10.571 16.998 15.985 24.628H257.882c-11.046 0-20 8.954-20 20s8.954 20 20 20h341.45c11.046 0 20-8.954 20-20s-8.954-20-20-20zM348.613 731.809c0-32.947 26.804-59.752 59.751-59.752s59.751 26.805 59.751 59.752c0 20.308-10.261 50.143-28.152 81.854-12.107 21.461-23.992 37.335-31.599 45.897-7.607-8.563-19.492-24.438-31.599-45.897-17.89-31.713-28.152-61.547-28.152-81.854z m108.253 130.223a339.406 339.406 0 0 0 3.316 3.483h-5.751a328.337 328.337 0 0 0 2.435-3.483z m55.317-703.548c128.893 0 233.755 104.862 233.755 233.754 0 75.528-37.642 183.396-103.272 295.946-25.992 44.573-55.023 87.315-81.744 120.353-28.811 35.619-43.639 46.294-48.737 49.255-4.107-2.388-14.547-9.806-33.611-31.335 13.52-25.175 29.543-61.914 29.543-94.648 0-55.003-44.749-99.752-99.751-99.752-18.311 0-35.482 4.965-50.248 13.611-51.504-97.761-79.688-187.124-79.688-253.429-0.001-128.893 104.861-233.755 233.753-233.755zM652.624 865.516h-0.223c-11.046 0-20 8.954-20 20s8.954 20 20 20h0.223c11.046 0 20-8.954 20-20s-8.954-20-20-20zM766.118 865.516h-60.911c-11.046 0-20 8.954-20 20s8.954 20 20 20h60.911c11.046 0 20-8.954 20-20s-8.954-20-20-20z" fill="#ffffff" p-id="4809"></path><path d="M512.183 523.257c72.244 0 131.019-58.774 131.019-131.018 0-72.243-58.774-131.017-131.019-131.017-72.243 0-131.017 58.774-131.017 131.017s58.774 131.018 131.017 131.018z m0-222.035c50.188 0 91.019 40.83 91.019 91.017 0 50.188-40.831 91.018-91.019 91.018-50.187 0-91.017-40.831-91.017-91.018s40.83-91.017 91.017-91.017z" fill="#ffffff" p-id="4810"></path><path d="M439.964 813.662c17.891-31.711 28.152-61.546 28.152-81.854 0-32.947-26.804-59.752-59.751-59.752s-59.751 26.805-59.751 59.752c0 20.308 10.261 50.142 28.153 81.854 12.107 21.46 23.992 37.335 31.599 45.897 7.606-8.562 19.49-24.436 31.598-45.897z m-61.218-84.602a28.827 28.827 0 0 0-0.172 1.674c-0.39 5.256-4.776 9.26-9.962 9.26-0.249 0-0.499-0.009-0.751-0.027-5.508-0.409-9.641-5.205-9.232-10.713 0.068-0.921 0.165-1.859 0.287-2.791 0.717-5.477 5.741-9.331 11.214-8.616 5.474 0.716 9.332 5.736 8.616 11.213z m10.659-19.151a9.963 9.963 0 0 1-6.346 2.276 9.978 9.978 0 0 1-7.729-3.648c-3.508-4.266-2.894-10.567 1.372-14.075a49.961 49.961 0 0 1 31.663-11.338c5.289 0 10.5 0.825 15.486 2.454 5.25 1.714 8.117 7.359 6.403 12.609-1.714 5.251-7.362 8.117-12.61 6.402a29.845 29.845 0 0 0-9.279-1.466c-7.007 0.001-13.563 2.348-18.96 6.786z" fill="#ffffff" p-id="4811"></path><path d="M430.253 698.188c1.714-5.25-1.153-10.896-6.403-12.609a49.789 49.789 0 0 0-15.486-2.454 49.961 49.961 0 0 0-31.663 11.338c-4.266 3.508-4.879 9.81-1.372 14.075a9.981 9.981 0 0 0 7.729 3.648 9.963 9.963 0 0 0 6.346-2.276c5.397-4.438 11.953-6.785 18.959-6.785 3.177 0 6.299 0.493 9.279 1.466 5.249 1.714 10.898-1.153 12.611-6.403zM370.128 717.846c-5.473-0.715-10.497 3.14-11.214 8.616-0.122 0.932-0.218 1.87-0.287 2.791-0.409 5.508 3.725 10.304 9.232 10.713 0.252 0.019 0.502 0.027 0.751 0.027 5.186 0 9.572-4.004 9.962-9.26 0.042-0.563 0.1-1.12 0.172-1.674 0.718-5.476-3.14-10.496-8.616-11.213z" fill="#ffffff" p-id="4812"></path></svg>