<?xml version="1.0" standalone="no"?><!DOCTYPE svg PUBLIC "-//W3C//DTD SVG 1.1//EN" "http://www.w3.org/Graphics/SVG/1.1/DTD/svg11.dtd"><svg t="1545462217340" class="icon" style="" viewBox="0 0 1024 1024" version="1.1" xmlns="http://www.w3.org/2000/svg" p-id="4077" xmlns:xlink="http://www.w3.org/1999/xlink" width="200" height="200"><defs><style type="text/css"></style></defs><path d="M936.521135 832.40945c0 51.04763-41.383526 92.429109-92.431156 92.429109l-561.876967 0c-51.046606 0-92.431156-41.381479-92.431156-92.429109L189.781856 243.8641c0-51.046606 41.384549-92.431156 92.431156-92.431156l561.876967 0c51.04763 0 92.431156 41.384549 92.431156 92.431156L936.521135 832.40945zM883.182322 243.8641c0-21.590737-17.501606-39.092343-39.092343-39.092343l-561.876967 0c-21.590737 0-39.092343 17.501606-39.092343 39.092343l0 588.546374c0 21.589714 17.501606 39.093367 39.092343 39.093367l561.876967 0c21.591761 0 39.092343-17.503653 39.092343-39.093367L883.182322 243.8641z" p-id="4078" fill="#ffffff"></path><path d="M83.106278 551.47199c-14.728446 0-26.669406-11.941983-26.669406-26.669406L56.436872 123.851772c0-50.968835 36.383652-92.431156 87.352487-92.431156l440.953897 0c14.727423 0 26.669406 11.94096 26.669406 26.669406 0 14.727423-11.941983 26.669406-26.669406 26.669406L143.789359 84.759429c-21.565155 0-34.013675 17.540492-34.013675 39.092343l0 400.949788C109.774661 539.530007 97.833701 551.47199 83.106278 551.47199z" p-id="4079" fill="#ffffff"></path><path d="M761.153058 818.164005 571.408553 818.164005c-7.369851 0-13.334703-5.963829-13.334703-13.334703 0-7.368828 5.964852-13.334703 13.334703-13.334703l189.745529 0c7.070023 0 28.687366 0 28.687366-36.931121l0-56.409754c0-7.370875 5.963829-13.334703 13.33368-13.334703 7.357572 0 13.334703 5.963829 13.334703 13.334703l0 56.409754C816.50983 811.965839 776.272407 818.164005 761.153058 818.164005z" p-id="4080" fill="#ffffff"></path><path d="M803.175127 671.483294c-7.369851 0-13.33368-5.963829-13.33368-13.334703l0-13.334703c0-7.368828 5.963829-13.334703 13.33368-13.334703 7.357572 0 13.334703 5.965875 13.334703 13.334703l0 13.334703C816.50983 665.519466 810.532699 671.483294 803.175127 671.483294z" p-id="4081" fill="#ffffff"></path></svg>