<?xml version="1.0" standalone="no"?><!DOCTYPE svg PUBLIC "-//W3C//DTD SVG 1.1//EN" "http://www.w3.org/Graphics/SVG/1.1/DTD/svg11.dtd"><svg t="1545490102305" class="icon" style="" viewBox="0 0 1024 1024" version="1.1" xmlns="http://www.w3.org/2000/svg" p-id="7720" xmlns:xlink="http://www.w3.org/1999/xlink" width="200" height="200"><defs><style type="text/css"></style></defs><path d="M806.23872 309.188608l-202.84416 202.84416 202.84416 202.84416 82.280448-82.280448q16.570368-17.713152 39.99744-7.999488 22.284288 9.713664 22.284288 33.712128l0 255.983616q0 14.856192-10.856448 25.71264t-25.71264 10.856448l-255.983616 0q-23.998464 0-33.712128-22.85568-9.713664-22.284288 7.999488-39.426048l82.280448-82.280448-202.84416-202.84416-202.84416 202.84416 82.280448 82.280448q17.713152 17.14176 7.999488 39.426048-9.713664 22.85568-33.712128 22.85568l-255.983616 0q-14.856192 0-25.71264-10.856448t-10.856448-25.71264l0-255.983616q0-23.998464 22.85568-33.712128 22.284288-9.713664 39.426048 7.999488l82.280448 82.280448 202.84416-202.84416-202.84416-202.84416-82.280448 82.280448q-10.856448 10.856448-25.71264 10.856448-6.856704 0-13.713408-2.85696-22.85568-9.713664-22.85568-33.712128l0-255.983616q0-14.856192 10.856448-25.71264t25.71264-10.856448l255.983616 0q23.998464 0 33.712128 22.85568 9.713664 22.284288-7.999488 39.426048l-82.280448 82.280448 202.84416 202.84416 202.84416-202.84416-82.280448-82.280448q-17.713152-17.14176-7.999488-39.426048 9.713664-22.85568 33.712128-22.85568l255.983616 0q14.856192 0 25.71264 10.856448t10.856448 25.71264l0 255.983616q0 23.998464-22.284288 33.712128-7.428096 2.85696-14.2848 2.85696-14.856192 0-25.71264-10.856448z" p-id="7721" fill="#ffffff"></path></svg>