<?xml version="1.0" standalone="no"?><!DOCTYPE svg PUBLIC "-//W3C//DTD SVG 1.1//EN" "http://www.w3.org/Graphics/SVG/1.1/DTD/svg11.dtd"><svg t="1542623302904" class="icon" style="" viewBox="0 0 1024 1024" version="1.1" xmlns="http://www.w3.org/2000/svg" p-id="4451" xmlns:xlink="http://www.w3.org/1999/xlink" width="200" height="200"><defs><style type="text/css"></style></defs><path d="M760.9 649.4V853.5h203.8C946.6 927.2 880 982 800.9 982c-93 0-168.7-75.7-168.7-168.7 0-79.3 54.9-145.9 128.7-163.9m40-47c-116.4 0-210.8 94.4-210.8 210.8S684.5 1024 800.9 1024s210.8-94.4 210.8-210.8c0-0.7-0.1-1.3-0.1-2H803.1V602.5c-0.7 0-1.5-0.1-2.2-0.1z" fill="#ffffff" p-id="4452"></path><path d="M855.9 640.2c57 15.8 102.4 61.2 118.1 118.3H855.9V640.2M813.7 592v208.7h208.5C1021.1 686 928.4 593.2 813.7 592z" fill="#ffffff" p-id="4453"></path><path d="M171.1 340l-169-99.6L405.4 0.1l413.2 240.3-408.3 240.4-161.7-95.2 41.5-24.6 120.2 70.8L735 240.7 405.6 49.1 84.9 240.2l127.8 75.3-41.2 24.3M378.4 968.2V507.7l-150.6-88.8v49l108.4 63.9v362.6l-292-172.2V359.6l108.5 64 0.1-49L2.1 285.8v460.5zM441.4 968.2L577.6 888c-7.9-23.5-12.2-48.6-12.2-74.8 0-130 105.4-235.4 235.4-235.4 6 0 11.8 0.3 17.7 0.7V285.8L441.4 507.7v460.5z m42.2-436.4l292.7-172.3v177.2c-141.6 12.4-253.1 131.7-253.1 276.5 0 18.4 1.8 36.7 5.4 54.6l-45.1 26.5V531.8z" fill="#ffffff" p-id="4454"></path><path d="M198.8 356.3l402.1-242.4 30.3 17.6-406.7 239.9-22.8 32.2 3.9 462.7-30.7-18.1 0.8-460z" fill="#ffffff" p-id="4455"></path></svg>