<?xml version="1.0" standalone="no"?><!DOCTYPE svg PUBLIC "-//W3C//DTD SVG 1.1//EN" "http://www.w3.org/Graphics/SVG/1.1/DTD/svg11.dtd"><svg t="1521698345517" class="icon" style="" viewBox="0 0 1024 1024" version="1.1" xmlns="http://www.w3.org/2000/svg" p-id="4298" xmlns:xlink="http://www.w3.org/1999/xlink" width="200" height="200"><defs><style type="text/css"></style></defs><path d="M781.248 178.752C768.768 166.24 752.384 160 736 160l-64 0 0 32 64 0c8.192 0 16.384 3.136 22.624 9.376C764.864 207.616 768 215.808 768 224l0 576c0 8.192-3.136 16.384-9.376 22.624S744.192 832 736 832L288 832c-8.192 0-16.384-3.136-22.624-9.376S256 808.192 256 800L256 224c0-8.192 3.136-16.384 9.376-22.624C271.616 195.136 279.808 192 288 192l64 0L352 160 288 160C271.616 160 255.232 166.24 242.752 178.752 230.24 191.232 224 207.616 224 224l0 576c0 16.384 6.24 32.768 18.752 45.248C255.232 857.76 271.616 864 288 864l448 0c16.384 0 32.768-6.24 45.248-18.752C793.76 832.768 800 816.384 800 800L800 224C800 207.616 793.76 191.232 781.248 178.752z" p-id="4299" fill="#ffffff"></path><path d="M448 160l128 0 0 32-128 0 0-32Z" p-id="4300" fill="#ffffff"></path><path d="M400 240C408.832 240 416 232.832 416 224L416 128c0-8.832-7.168-16-16-16S384 119.168 384 128l0 96C384 232.832 391.168 240 400 240z" p-id="4301" fill="#ffffff"></path><path d="M624 240C632.832 240 640 232.832 640 224L640 128c0-8.832-7.168-16-16-16S608 119.168 608 128l0 96C608 232.832 615.168 240 624 240z" p-id="4302" fill="#ffffff"></path><path d="M704 352l-288 0c-8.832 0-16 7.168-16 16S407.168 384 416 384l288 0c8.832 0 16-7.168 16-16S712.832 352 704 352z" p-id="4303" fill="#ffffff"></path><path d="M320 352c-8.832 0-16 7.168-16 16S311.168 384 320 384l32 0c8.832 0 16-7.168 16-16S360.832 352 352 352L320 352z" p-id="4304" fill="#ffffff"></path><path d="M704 480l-288 0c-8.832 0-16 7.168-16 16S407.168 512 416 512l288 0c8.832 0 16-7.168 16-16S712.832 480 704 480z" p-id="4305" fill="#ffffff"></path><path d="M352 480l-32 0c-8.832 0-16 7.168-16 16S311.168 512 320 512l32 0c8.832 0 16-7.168 16-16S360.832 480 352 480z" p-id="4306" fill="#ffffff"></path><path d="M704 608l-288 0c-8.832 0-16 7.168-16 16S407.168 640 416 640l288 0c8.832 0 16-7.168 16-16S712.832 608 704 608z" p-id="4307" fill="#ffffff"></path><path d="M352 608l-32 0c-8.832 0-16 7.168-16 16S311.168 640 320 640l32 0c8.832 0 16-7.168 16-16S360.832 608 352 608z" p-id="4308" fill="#ffffff"></path></svg>